<svg xmlns="http://www.w3.org/2000/svg" width="92.34" height="32" viewBox="0 0 92.34 32">
  <metadata><?xpacket begin="﻿" id="W5M0MpCehiHzreSzNTczkc9d"?>
<x:xmpmeta xmlns:x="adobe:ns:meta/" x:xmptk="Adobe XMP Core 5.6-c138 79.159824, 2016/09/14-01:09:01        ">
   <rdf:RDF xmlns:rdf="http://www.w3.org/1999/02/22-rdf-syntax-ns#">
      <rdf:Description rdf:about=""/>
   </rdf:RDF>
</x:xmpmeta>
                                                                                                    
                                                                                                    
                                                                                                    
                                                                                                    
                                                                                                    
                                                                                                    
                                                                                                    
                                                                                                    
                                                                                                    
                                                                                                    
                                                                                                    
                                                                                                    
                                                                                                    
                                                                                                    
                                                                                                    
                                                                                                    
                                                                                                    
                                                                                                    
                                                                                                    
                                                                                                    
                           
<?xpacket end="w"?></metadata>
<defs>
    <style>
      .cls-1 {
        fill: #353535;
        fill-opacity: 0.99;
        fill-rule: evenodd;
      }
    </style>
  </defs>
  <path id="Вход_copy" data-name="Вход copy" class="cls-1" d="M970,23h60.33a16,16,0,0,1,0,32H970A16,16,0,0,1,970,23Zm3,9.969v-0.96a3,3,0,0,1,3-3h11.059a3,3,0,0,1,3,3V44.985a3,3,0,0,1-3,3H976a3,3,0,0,1-3-3V44h2v2h13V31H975v1.969h-2Zm-3,8.046h6.029v2.743l7.027-5.3-7.027-5.3V35.9H970v5.114Z" transform="translate(-954 -23)"/>
</svg>
